<svg width="72" height="73" viewBox="0 0 72 73" fill="none" xmlns="http://www.w3.org/2000/svg">
<g clip-path="url(#clip0_2110_5187)">
<path d="M25.8487 66.2985C25.2175 65.8459 24.3386 65.9909 23.886 66.6221L21.8595 69.4478L28.8645 44.25C28.982 43.8264 28.8952 43.3722 28.6294 43.0222C28.3635 42.6723 27.9493 42.4669 27.5098 42.4669H12.1465L21.7327 29.1009C22.1853 28.4697 22.0403 27.5913 21.4091 27.1387C20.7779 26.6861 19.8996 26.8305 19.4469 27.4617L9.83496 40.864C9.47241 41.3452 9.28125 41.9181 9.28125 42.5218C9.28125 44.0429 10.5183 45.2794 12.0388 45.2794H25.6592L19.1014 68.8682C18.7202 70.0081 19.1294 71.2814 20.1105 71.9845C20.5961 72.3322 21.157 72.4992 21.7129 72.4992C22.572 72.4992 23.4196 72.0993 23.9568 71.3495L26.1717 68.2612C26.6243 67.6301 26.4799 66.7517 25.8487 66.2985Z" fill="url(#paint0_linear_2110_5187)"/>
<path d="M22.1228 26.1397C22.3711 26.3182 22.6578 26.4039 22.9424 26.4039C23.3796 26.4039 23.8103 26.2007 24.085 25.8184L24.1075 25.7876C24.5607 25.157 24.4168 24.2786 23.7861 23.8249C23.1555 23.3717 22.2766 23.5156 21.8234 24.1462L21.8015 24.177C21.3483 24.8076 21.4922 25.686 22.1228 26.1397Z" fill="url(#paint1_linear_2110_5187)"/>
<path d="M47.2515 41.562C46.5648 41.562 45.8886 41.6076 45.2256 41.6944L52.0811 32.1351C52.4436 31.6539 52.6353 31.081 52.6353 30.4773C52.6353 28.9568 51.3983 27.7197 49.8777 27.7197H36.2574L42.8146 4.13033C43.1964 2.99104 42.7866 1.71717 41.8055 1.01459C40.5695 0.129639 38.8441 0.414735 37.9592 1.6496L25.0996 19.5805C24.647 20.2116 24.7915 21.09 25.4226 21.5426C26.0538 21.9953 26.9327 21.8508 27.3853 21.2196L40.0565 3.5508L33.0521 28.7491C32.934 29.1727 33.0214 29.627 33.2872 29.9769C33.5531 30.3268 33.9673 30.5322 34.4067 30.5322H49.7695L40.8711 42.9397C35.9553 45.1743 32.4067 49.9078 31.8573 55.5081L29.5392 58.7403C29.0866 59.3715 29.2311 60.2504 29.8622 60.703C30.1105 60.881 30.3967 60.9667 30.6807 60.9667C31.1185 60.9667 31.5497 60.7629 31.8244 60.3795L32.0749 60.0306C33.4756 67.1295 39.7478 72.4996 47.2509 72.4996C55.7807 72.4996 62.7203 65.5606 62.7203 57.0308C62.7203 48.501 55.7813 41.562 47.2515 41.562ZM47.2515 69.6877C40.2724 69.6877 34.5946 64.0099 34.5946 57.0308C34.5946 50.0523 40.2724 44.3745 47.2515 44.3745C54.23 44.3745 59.9078 50.0523 59.9078 57.0308C59.9078 64.0099 54.23 69.6877 47.2515 69.6877Z" fill="url(#paint2_linear_2110_5187)"/>
<path d="M29.1462 61.701C28.5145 61.2483 27.6361 61.3934 27.184 62.0251L27.1615 62.0558C26.7094 62.687 26.8544 63.5654 27.4856 64.018C27.7339 64.1954 28.0201 64.2811 28.3036 64.2811C28.7419 64.2811 29.1737 64.0773 29.4478 63.6939L29.4698 63.6631C29.9224 63.0314 29.7774 62.1531 29.1462 61.701Z" fill="url(#paint3_linear_2110_5187)"/>
<path d="M40.008 58.427C40.0261 58.4254 40.0437 58.4221 40.0618 58.4194C40.0816 58.4161 40.1013 58.4139 40.1211 58.41C40.1398 58.4062 40.1574 58.4012 40.1755 58.3968C40.1909 58.393 40.2063 58.3897 40.2216 58.3853C40.2326 58.3825 40.2436 58.3798 40.2546 58.3765C40.2771 58.3694 40.2991 58.3611 40.3211 58.3534C40.3419 58.3457 40.3634 58.3386 40.3848 58.3298C40.4051 58.3216 40.4249 58.3117 40.4447 58.3023C40.4661 58.2919 40.4881 58.2826 40.5095 58.271C40.5194 58.2655 40.5282 58.2601 40.5381 58.2546C40.5414 58.2524 40.5452 58.2513 40.5485 58.2491L42.2464 57.2707C42.9194 56.8835 43.1506 56.0232 42.7628 55.3503C42.5381 54.9608 42.1547 54.7202 41.7416 54.6615C42.6623 52.5296 44.7843 51.0332 47.2496 51.0332C48.852 51.0332 50.3577 51.6572 51.4909 52.7899C52.0397 53.3393 52.9301 53.3393 53.4795 52.7899C54.0288 52.2406 54.0288 51.3502 53.4795 50.8009C51.8156 49.137 49.6029 48.2207 47.2502 48.2207C43.3445 48.2207 40.0266 50.7756 38.8747 54.3017C38.3935 54.1533 37.8475 54.2698 37.4663 54.6505C36.9175 55.1998 36.9175 56.0902 37.4663 56.6396L38.8505 58.0238C38.8522 58.0249 38.8533 58.026 38.8549 58.0277C38.8643 58.037 38.8742 58.0453 38.8841 58.0541C38.9077 58.0766 38.9307 58.0986 38.956 58.1189C38.9643 58.1255 38.973 58.1315 38.9818 58.1387C38.9961 58.1496 39.0104 58.1601 39.0252 58.1711C39.039 58.1809 39.0521 58.1914 39.0664 58.2007C39.0846 58.2128 39.1038 58.2238 39.123 58.2353C39.1247 58.2364 39.1269 58.2375 39.1285 58.2386C39.14 58.2452 39.151 58.2529 39.1626 58.259C39.1697 58.2633 39.1768 58.2677 39.184 58.271C39.2038 58.282 39.2246 58.2908 39.245 58.3007C39.2658 58.3106 39.2867 58.321 39.3087 58.3304C39.3285 58.3386 39.3488 58.3452 39.3691 58.3523C39.3922 58.3606 39.4152 58.3694 39.4383 58.3765C39.4504 58.3804 39.4625 58.3825 39.474 58.3864C39.4867 58.3897 39.4993 58.3924 39.5119 58.3957C39.5317 58.4007 39.5515 58.4062 39.5718 58.41C39.5932 58.4144 39.6152 58.4166 39.6372 58.4199C39.652 58.4221 39.6663 58.4248 39.6811 58.427C39.6899 58.4276 39.6987 58.4292 39.7075 58.4303C39.7498 58.4347 39.7926 58.4364 39.8349 58.4369C39.8393 58.4369 39.8432 58.4375 39.8476 58.4375C39.8547 58.4375 39.8613 58.4364 39.8684 58.4364C39.9069 58.4358 39.9464 58.4342 39.9849 58.4303C39.9931 58.4292 40.0003 58.4281 40.008 58.427Z" fill="url(#paint4_linear_2110_5187)"/>
<path d="M57.0341 57.4224L55.6488 56.037C55.6444 56.0326 55.6389 56.0287 55.6345 56.0244C55.6339 56.0238 55.6334 56.0233 55.6328 56.0227C55.6136 56.004 55.5933 55.9859 55.573 55.9683C55.5642 55.9601 55.5554 55.9518 55.546 55.9442C55.5394 55.9387 55.5323 55.9337 55.5257 55.9288C55.507 55.9139 55.4878 55.8997 55.4686 55.8859C55.4576 55.8782 55.4466 55.8694 55.4351 55.8623C55.4268 55.8563 55.418 55.8513 55.4098 55.8458C55.3928 55.8348 55.3757 55.8255 55.3587 55.8156C55.345 55.8074 55.3313 55.7986 55.317 55.7914C55.3071 55.786 55.2977 55.7816 55.2879 55.7766C55.273 55.7689 55.2576 55.7623 55.2428 55.7552C55.2258 55.7475 55.2093 55.7393 55.1923 55.7321C55.1818 55.7283 55.1719 55.7244 55.1621 55.7206C55.1478 55.7151 55.134 55.7107 55.1198 55.7057C55.1005 55.6992 55.0813 55.6915 55.0615 55.6854C55.0527 55.6827 55.0429 55.6805 55.0341 55.6777C55.0187 55.6739 55.0033 55.6706 54.9879 55.6667C54.9682 55.6618 54.9484 55.6563 54.9286 55.6525C54.9204 55.6508 54.9121 55.6497 54.9039 55.6481C54.8847 55.6448 54.866 55.6426 54.8468 55.6398C54.8286 55.6371 54.8105 55.6338 54.7924 55.6321C54.7858 55.631 54.7792 55.631 54.7726 55.6305C54.7484 55.6288 54.7243 55.6283 54.7001 55.6272C54.6929 55.6272 54.6864 55.6261 54.6792 55.6261C54.671 55.6261 54.6627 55.625 54.6545 55.625C54.649 55.625 54.6441 55.6255 54.6391 55.6255C54.6133 55.6261 54.5875 55.6277 54.5622 55.6294C54.5468 55.6305 54.5314 55.6305 54.5161 55.6316C54.51 55.6321 54.5045 55.6332 54.4985 55.6338C54.4754 55.6365 54.4523 55.6404 54.4293 55.6442C54.4128 55.647 54.3963 55.6486 54.3804 55.6519C54.3732 55.6536 54.3661 55.6547 54.359 55.6563C54.3397 55.6607 54.3205 55.6662 54.3013 55.6711C54.2832 55.6761 54.2645 55.6799 54.2469 55.6854C54.2387 55.6876 54.2304 55.6904 54.2227 55.6931C54.2068 55.6981 54.1914 55.7041 54.176 55.7101C54.1563 55.7173 54.1359 55.7233 54.1167 55.7316C54.1079 55.7354 54.0997 55.7393 54.0909 55.7426C54.0777 55.7486 54.0645 55.7557 54.0513 55.7618C54.0316 55.7711 54.0112 55.7805 53.9915 55.7909C53.9827 55.7953 53.9744 55.8008 53.9656 55.8052C53.9618 55.8074 53.9574 55.8096 53.9536 55.8118L52.2545 56.7879C51.5816 57.1752 51.3492 58.0349 51.736 58.7083C51.9612 59.0989 52.3452 59.3406 52.7593 59.3988C51.8392 61.5313 49.7167 63.0282 47.2508 63.0282C45.649 63.0282 44.1427 62.4041 43.01 61.2714C42.4607 60.7227 41.5703 60.7227 41.021 61.2714C40.4722 61.8208 40.4722 62.7112 41.021 63.2605C42.6854 64.9244 44.8975 65.8407 47.2508 65.8407C51.1559 65.8407 54.4738 63.2858 55.6257 59.7597C55.7603 59.8015 55.9003 59.8229 56.0399 59.8229C56.3997 59.8229 56.7595 59.6856 57.0341 59.4109C57.5835 58.8621 57.5835 57.9717 57.0341 57.4224Z" fill="url(#paint5_linear_2110_5187)"/>
</g>
<defs>
<linearGradient id="paint0_linear_2110_5187" x1="9.28125" y1="49.6871" x2="28.9158" y2="49.6871" gradientUnits="userSpaceOnUse">
<stop stop-color="#4776E6"/>
<stop offset="1" stop-color="#8E54E9"/>
</linearGradient>
<linearGradient id="paint1_linear_2110_5187" x1="21.5371" y1="24.9822" x2="24.3718" y2="24.9822" gradientUnits="userSpaceOnUse">
<stop stop-color="#4776E6"/>
<stop offset="1" stop-color="#8E54E9"/>
</linearGradient>
<linearGradient id="paint2_linear_2110_5187" x1="24.8359" y1="36.4998" x2="62.7203" y2="36.4998" gradientUnits="userSpaceOnUse">
<stop stop-color="#4776E6"/>
<stop offset="1" stop-color="#8E54E9"/>
</linearGradient>
<linearGradient id="paint3_linear_2110_5187" x1="26.8984" y1="62.8593" x2="29.7333" y2="62.8593" gradientUnits="userSpaceOnUse">
<stop stop-color="#4776E6"/>
<stop offset="1" stop-color="#8E54E9"/>
</linearGradient>
<linearGradient id="paint4_linear_2110_5187" x1="37.0547" y1="53.3291" x2="53.8914" y2="53.3291" gradientUnits="userSpaceOnUse">
<stop stop-color="#4776E6"/>
<stop offset="1" stop-color="#8E54E9"/>
</linearGradient>
<linearGradient id="paint5_linear_2110_5187" x1="40.6094" y1="60.7328" x2="57.4461" y2="60.7328" gradientUnits="userSpaceOnUse">
<stop stop-color="#4776E6"/>
<stop offset="1" stop-color="#8E54E9"/>
</linearGradient>
<clipPath id="clip0_2110_5187">
<rect width="72" height="72" fill="white" transform="translate(0 0.5)"/>
</clipPath>
</defs>
</svg>
